<?xml version="1.0" encoding="UTF-8" standalone="no"?>
<svg
   class="svglite"
   width="820pt"
   height="831pt"
   viewBox="0 0 820 831"
   version="1.1"
   id="svg1009"
   sodipodi:docname="Explain_how_it_works.svg"
   inkscape:version="1.2.2 (b0a84865, 2022-12-01)"
   inkscape:export-filename="How_it_works.png"
   inkscape:export-xdpi="300"
   inkscape:export-ydpi="300"
   xmlns:inkscape="http://www.inkscape.org/namespaces/inkscape"
   xmlns:sodipodi="http://sodipodi.sourceforge.net/DTD/sodipodi-0.dtd"
   xmlns="http://www.w3.org/2000/svg"
   xmlns:svg="http://www.w3.org/2000/svg"
   xmlns:rdf="http://www.w3.org/1999/02/22-rdf-syntax-ns#"
   xmlns:cc="http://creativecommons.org/ns#"
   xmlns:dc="http://purl.org/dc/elements/1.1/">
  <metadata
     id="metadata1013">
    <rdf:RDF>
      <cc:Work
         rdf:about="">
        <dc:format>image/svg+xml</dc:format>
        <dc:type
           rdf:resource="http://purl.org/dc/dcmitype/StillImage" />
      </cc:Work>
    </rdf:RDF>
  </metadata>
  <sodipodi:namedview
     pagecolor="#ffffff"
     bordercolor="#666666"
     borderopacity="1"
     objecttolerance="10"
     gridtolerance="10"
     guidetolerance="10"
     inkscape:pageopacity="0"
     inkscape:pageshadow="2"
     inkscape:window-width="3440"
     inkscape:window-height="1440"
     id="namedview1011"
     showgrid="false"
     inkscape:zoom="1.0824912"
     inkscape:cx="538.11061"
     inkscape:cy="530.25835"
     inkscape:window-x="0"
     inkscape:window-y="0"
     inkscape:window-maximized="0"
     inkscape:current-layer="svg1009"
     inkscape:document-rotation="0"
     showguides="true"
     inkscape:guide-bbox="true"
     inkscape:showpageshadow="2"
     inkscape:pagecheckerboard="0"
     inkscape:deskcolor="#d1d1d1"
     inkscape:document-units="pt" />
  <defs
     id="defs835">
    <rect
       x="1193.5432"
       y="698.38904"
       width="271.59573"
       height="404.62222"
       id="rect23815" />
    <rect
       x="1010.6318"
       y="856.35797"
       width="8.3141556"
       height="28.637646"
       id="rect2979" />
    <rect
       x="139.49306"
       y="916.40466"
       width="157.04517"
       height="52.656319"
       id="rect2736" />
    <style
       type="text/css"
       id="style833"><![CDATA[
    .svglite line, .svglite polyline, .svglite polygon, .svglite path, .svglite rect, .svglite circle {
      fill: none;
      stroke: #000000;
      stroke-linecap: round;
      stroke-linejoin: round;
      stroke-miterlimit: 10.00;
    }
  ]]></style>
    <rect
       x="139.49306"
       y="916.40466"
       width="157.04517"
       height="52.656319"
       id="rect2736-3" />
    <rect
       x="139.49306"
       y="916.40466"
       width="157.04517"
       height="52.656319"
       id="rect2736-3-4" />
    <rect
       x="139.49306"
       y="916.40466"
       width="157.04517"
       height="52.656319"
       id="rect2736-3-4-7" />
    <rect
       x="139.49306"
       y="916.40466"
       width="226.3298"
       height="51.732525"
       id="rect3188" />
    <clipPath
       clipPathUnits="userSpaceOnUse"
       id="clipPath3251">
      <g
         id="g3255"
         transform="translate(80.029792,-109.78513)">
        <rect
           x="-77.258415"
           y="109.78513"
           width="792"
           height="648"
           id="rect3253" />
      </g>
    </clipPath>
    <clipPath
       clipPathUnits="userSpaceOnUse"
       id="clipPath3263">
      <g
         id="g3267"
         transform="translate(77.258414,-109.78513)">
        <rect
           x="-77.258415"
           y="109.78513"
           width="792"
           height="648"
           id="rect3265" />
      </g>
    </clipPath>
    <clipPath
       clipPathUnits="userSpaceOnUse"
       id="clipPath3285">
      <g
         id="g3289">
        <rect
           x="0"
           y="0"
           width="792"
           height="648"
           id="rect3287" />
      </g>
    </clipPath>
    <clipPath
       clipPathUnits="userSpaceOnUse"
       id="clipPath3291">
      <g
         id="g3295">
        <rect
           x="0"
           y="0"
           width="792"
           height="648"
           id="rect3293" />
      </g>
    </clipPath>
    <clipPath
       clipPathUnits="userSpaceOnUse"
       id="clipPath3297">
      <g
         id="g3301">
        <rect
           x="0"
           y="0"
           width="792"
           height="648"
           id="rect3299" />
      </g>
    </clipPath>
    <clipPath
       clipPathUnits="userSpaceOnUse"
       id="clipPath3303">
      <g
         id="g3307">
        <rect
           x="0"
           y="0"
           width="792"
           height="648"
           id="rect3305" />
      </g>
    </clipPath>
    <clipPath
       clipPathUnits="userSpaceOnUse"
       id="clipPath3309">
      <g
         id="g3313">
        <rect
           x="0"
           y="0"
           width="792"
           height="648"
           id="rect3311" />
      </g>
    </clipPath>
    <clipPath
       clipPathUnits="userSpaceOnUse"
       id="clipPath3315">
      <g
         id="g3319">
        <rect
           x="0"
           y="0"
           width="792"
           height="648"
           id="rect3317" />
      </g>
    </clipPath>
    <clipPath
       clipPathUnits="userSpaceOnUse"
       id="clipPath3580">
      <g
         id="g3586">
        <g
           id="g3584"
           transform="translate(12.237601,-0.05901)">
          <rect
             x="-77.258415"
             y="109.78513"
             width="792"
             height="648"
             id="rect3582" />
        </g>
      </g>
    </clipPath>
    <clipPath
       clipPathUnits="userSpaceOnUse"
       id="clipPath3588">
      <g
         id="g3594">
        <g
           id="g3592"
           transform="translate(12.237601,-0.05901)">
          <rect
             x="-77.258415"
             y="109.78513"
             width="792"
             height="648"
             id="rect3590" />
        </g>
      </g>
    </clipPath>
    <clipPath
       clipPathUnits="userSpaceOnUse"
       id="clipPath3596">
      <g
         id="g3602">
        <g
           id="g3600"
           transform="translate(12.237601,-0.05901)">
          <rect
             x="-77.258415"
             y="109.78513"
             width="792"
             height="648"
             id="rect3598" />
        </g>
      </g>
    </clipPath>
    <clipPath
       clipPathUnits="userSpaceOnUse"
       id="clipPath3604">
      <g
         id="g3610">
        <g
           id="g3608"
           transform="translate(12.237601,-0.05901)">
          <rect
             x="-77.258415"
             y="109.78513"
             width="792"
             height="648"
             id="rect3606" />
        </g>
      </g>
    </clipPath>
    <clipPath
       clipPathUnits="userSpaceOnUse"
       id="clipPath3612">
      <g
         id="g3618">
        <g
           id="g3616"
           transform="translate(12.237601,-0.05901)">
          <rect
             x="-77.258415"
             y="109.78513"
             width="792"
             height="648"
             id="rect3614" />
        </g>
      </g>
    </clipPath>
    <clipPath
       clipPathUnits="userSpaceOnUse"
       id="clipPath3620">
      <g
         id="g3626">
        <g
           id="g3624"
           transform="translate(12.237601,-0.05901)">
          <rect
             x="-77.258415"
             y="109.78513"
             width="792"
             height="648"
             id="rect3622" />
        </g>
      </g>
    </clipPath>
    <rect
       x="139.49306"
       y="916.40466"
       width="157.04517"
       height="52.656319"
       id="rect6029" />
    <rect
       x="139.49306"
       y="916.40466"
       width="157.04517"
       height="52.656319"
       id="rect6380" />
    <rect
       x="139.49306"
       y="916.40466"
       width="157.04517"
       height="52.656319"
       id="rect6450" />
    <rect
       x="139.49306"
       y="916.40466"
       width="157.04517"
       height="52.656319"
       id="rect6452" />
    <rect
       x="139.49306"
       y="916.40466"
       width="157.04517"
       height="52.656319"
       id="rect12326" />
  </defs>
  <defs
     id="defs842">
    <clipPath
       id="cpMC4wMHw3OTIuMDB8MC4wMHw2NDguMDA=">
      <rect
         x="0"
         y="0"
         width="792"
         height="648"
         id="rect839" />
    </clipPath>
  </defs>
  <g
     clip-path="url(#cpMC4wMHw3OTIuMDB8MC4wMHw2NDguMDA=)"
     id="g844" />
  <defs
     id="defs849">
    <clipPath
       id="cpNTkuMDR8NzYxLjc2fDU5LjA0fDU3NC41Ng==">
      <rect
         x="59.040001"
         y="59.040001"
         width="702.71997"
         height="515.52002"
         id="rect846" />
    </clipPath>
  </defs>
  <g
     clip-path="url(#cpNTkuMDR8NzYxLjc2fDU5LjA0fDU3NC41Ng==)"
     id="g925"
     transform="translate(0,-16.5)">
    <line
       x1="85.07"
       y1="359.89001"
       x2="187.82001"
       y2="359.89001"
       style="stroke-width:2.25"
       id="line851" />
    <line
       x1="187.82001"
       y1="442.76001"
       x2="283.07999"
       y2="442.76001"
       style="stroke-width:2.25"
       id="line853" />
    <line
       x1="283.07999"
       y1="489.17001"
       x2="357.45001"
       y2="489.17001"
       style="stroke-width:2.25"
       id="line855" />
    <line
       x1="357.45001"
       y1="528.95001"
       x2="506.04001"
       y2="528.95001"
       style="stroke-width:2.25"
       id="line857" />
    <line
       x1="506.04001"
       y1="555.46997"
       x2="552.37"
       y2="555.46997"
       style="stroke-width:2.25"
       id="line859" />
    <line
       x1="506.04001"
       y1="502.42999"
       x2="527.09003"
       y2="502.42999"
       style="stroke-width:2.25"
       id="line861" />
    <line
       x1="357.45001"
       y1="449.39001"
       x2="456.75"
       y2="449.39001"
       style="stroke-width:2.25"
       id="line863" />
    <line
       x1="283.07999"
       y1="396.35999"
       x2="283.81"
       y2="396.35999"
       style="stroke-width:2.25"
       id="line865" />
    <line
       x1="187.82001"
       y1="277.01999"
       x2="247.14"
       y2="277.01999"
       style="stroke-width:2.25"
       id="line867" />
    <line
       x1="247.14"
       y1="316.79999"
       x2="449.87"
       y2="316.79999"
       style="stroke-width:2.25"
       id="line869" />
    <line
       x1="449.87"
       y1="343.32001"
       x2="503"
       y2="343.32001"
       style="stroke-width:2.25"
       id="line871" />
    <line
       x1="449.87"
       y1="290.28"
       x2="666.32001"
       y2="290.28"
       style="stroke-width:2.25"
       id="line873" />
    <line
       x1="247.14"
       y1="237.24001"
       x2="315.39001"
       y2="237.24001"
       style="stroke-width:2.25"
       id="line875" />
    <line
       x1="85.07"
       y1="117.91"
       x2="144.52"
       y2="117.91"
       style="stroke-width:2.25"
       id="line877" />
    <line
       x1="144.52"
       y1="157.69"
       x2="229.59"
       y2="157.69"
       style="stroke-width:2.25"
       id="line879" />
    <line
       x1="229.59"
       y1="184.21001"
       x2="310.67999"
       y2="184.21001"
       style="stroke-width:2.25"
       id="line881" />
    <line
       x1="229.59"
       y1="131.17"
       x2="435.84"
       y2="131.17"
       style="stroke-width:2.25"
       id="line883" />
    <line
       x1="144.52"
       y1="78.129997"
       x2="206.33"
       y2="78.129997"
       style="stroke-width:2.25"
       id="line885" />
    <line
       x1="85.07"
       y1="359.89001"
       x2="85.07"
       y2="117.91"
       style="stroke-width:2.25"
       id="line887" />
    <line
       x1="144.52"
       y1="157.69"
       x2="144.52"
       y2="78.129997"
       style="stroke-width:2.25"
       id="line889" />
    <line
       x1="229.59"
       y1="184.21001"
       x2="229.59"
       y2="131.17"
       style="stroke-width:2.25"
       id="line891" />
    <line
       x1="187.82001"
       y1="442.76001"
       x2="187.82001"
       y2="277.01999"
       style="stroke-width:2.25"
       id="line893" />
    <line
       x1="283.07999"
       y1="489.17001"
       x2="283.07999"
       y2="396.35999"
       style="stroke-width:2.25"
       id="line895" />
    <line
       x1="357.45001"
       y1="528.95001"
       x2="357.45001"
       y2="449.39001"
       style="stroke-width:2.25"
       id="line897" />
    <line
       x1="506.04001"
       y1="555.46997"
       x2="506.04001"
       y2="502.42999"
       style="stroke-width:2.25"
       id="line899" />
    <line
       x1="247.14"
       y1="316.79999"
       x2="247.14"
       y2="237.24001"
       style="stroke-width:2.25"
       id="line901" />
    <line
       x1="449.87"
       y1="343.32001"
       x2="449.87"
       y2="290.28"
       style="stroke-width:2.25"
       id="line903" />
    <text
       x="217.44"
       y="81.290001"
       style="font-style:italic;font-size:12px;font-family:Arial"
       textLength="64.059998"
       lengthAdjust="spacingAndGlyphs"
       id="text905">Sequence 7</text>
    <text
       x="321.79001"
       y="187.37"
       style="font-style:italic;font-size:12px;font-family:Arial"
       textLength="64.059998"
       lengthAdjust="spacingAndGlyphs"
       id="text907">Sequence 1</text>
    <text
       x="446.95001"
       y="134.33"
       style="font-style:italic;font-size:12px;font-family:Arial"
       textLength="64.059998"
       lengthAdjust="spacingAndGlyphs"
       id="text909">Sequence 5</text>
    <text
       x="294.92001"
       y="399.51999"
       style="font-style:italic;font-size:12px;font-family:Arial"
       textLength="64.059998"
       lengthAdjust="spacingAndGlyphs"
       id="text911">Sequence 6</text>
    <text
       x="467.85999"
       y="452.54999"
       style="font-style:italic;font-size:12px;font-family:Arial"
       textLength="64.059998"
       lengthAdjust="spacingAndGlyphs"
       id="text913">Sequence 4</text>
    <text
       x="563.47998"
       y="558.63"
       style="font-style:italic;font-size:12px;font-family:Arial"
       textLength="64.059998"
       lengthAdjust="spacingAndGlyphs"
       id="text915">Sequence 3</text>
    <text
       x="538.20001"
       y="505.59"
       style="font-style:italic;font-size:12px;font-family:Arial"
       textLength="64.059998"
       lengthAdjust="spacingAndGlyphs"
       id="text917">Sequence 2</text>
    <text
       x="514.10999"
       y="346.48001"
       style="font-style:italic;font-size:12px;font-family:Arial"
       textLength="64.059998"
       lengthAdjust="spacingAndGlyphs"
       id="text919">Sequence 9</text>
    <text
       x="677.42999"
       y="293.44"
       style="font-style:italic;font-size:12px;font-family:Arial"
       textLength="64.059998"
       lengthAdjust="spacingAndGlyphs"
       id="text921">Sequence 8</text>
    <text
       x="326.5"
       y="240.41"
       style="font-style:italic;font-size:12px;font-family:Arial"
       textLength="70.730003"
       lengthAdjust="spacingAndGlyphs"
       id="text923">Sequence 10</text>
  </g>
  <line
     x1="85.07"
     y1="574.56"
     x2="677.76001"
     y2="574.56"
     style="stroke-width:1.5"
     id="line927"
     clip-path="url(#clipPath3315)"
     transform="translate(0,-6)" />
  <line
     x1="85.07"
     y1="574.56"
     x2="85.07"
     y2="581.76001"
     style="fill:#030101;fill-opacity:0.972549;stroke-width:1.5"
     id="line929"
     clip-path="url(#clipPath3309)"
     transform="translate(0,-6)" />
  <line
     x1="233.24001"
     y1="574.56"
     x2="233.24001"
     y2="581.76001"
     style="fill:#030101;fill-opacity:0.972549;stroke-width:1.5"
     id="line931"
     clip-path="url(#clipPath3303)"
     transform="translate(0,-6)" />
  <line
     x1="677.76001"
     y1="574.56"
     x2="677.76001"
     y2="581.76001"
     style="stroke-width:1.5"
     id="line937"
     clip-path="url(#clipPath3285)"
     transform="translate(0,-6)" />
  <text
     xml:space="preserve"
     transform="matrix(0.75,0,0,0.75,592.94798,-125.88654)"
     id="text2734-9"
     style="font-size:16px;white-space:pre;shape-inside:url(#rect2736-3);display:inline;fill:#000000"><tspan
       x="139.49219"
       y="931.00158"
       id="tspan26537">Imports (to red)</tspan></text>
  <text
     xml:space="preserve"
     style="font-size:9px;fill:#000000;stroke-width:0.75"
     x="648.41864"
     y="740.65271"
     id="text2825"><tspan
       sodipodi:role="line"
       id="tspan2823"
       style="stroke-width:0.75"
       x="648.41864"
       y="740.65271" /></text>
  <text
     xml:space="preserve"
     transform="matrix(0.75,0,0,0.75,-72.141457,33.256624)"
     id="text2977"
     style="white-space:pre;shape-inside:url(#rect2979);display:inline;fill:#000000" />
  <g
     clip-path="url(#cpNTkuMDR8NzYxLjc2fDU5LjA0fDU3NC41Ng==)"
     id="g1007"
     transform="translate(0,-16.5)">
    <polygon
       points="76.76,233.62 76.6,233.89 76.45,234.16 76.3,234.44 76.16,234.72 76.03,235 75.91,235.29 75.8,235.59 75.7,235.88 75.61,236.18 75.53,236.48 75.46,236.79 75.4,237.09 75.34,237.4 75.3,237.71 75.27,238.02 75.24,238.34 75.23,238.65 75.23,238.96 75.24,239.27 75.25,239.59 75.28,239.9 75.32,240.21 75.36,240.52 75.42,240.83 75.48,241.13 75.56,241.43 75.65,241.74 75.74,242.03 75.84,242.33 75.96,242.62 76.08,242.91 76.21,243.19 76.35,243.47 76.5,243.75 85.07,238.9 94.9,238.9 94.9,238.59 94.88,238.28 94.86,237.96 94.83,237.65 94.78,237.34 94.73,237.04 94.66,236.73 94.59,236.43 94.5,236.12 94.41,235.83 94.31,235.53 94.2,235.24 94.08,234.95 93.95,234.67 93.81,234.39 93.66,234.11 93.5,233.84 93.34,233.57 93.16,233.31 92.98,233.06 92.79,232.81 92.59,232.57 92.39,232.33 92.18,232.1 91.96,231.88 91.73,231.66 91.5,231.46 91.26,231.26 91.01,231.06 90.76,230.88 90.5,230.7 90.24,230.53 89.97,230.37 89.69,230.22 89.42,230.08 89.13,229.94 88.85,229.82 88.56,229.7 88.26,229.6 87.96,229.5 87.66,229.41 87.36,229.34 87.06,229.27 86.75,229.21 86.44,229.16 86.13,229.12 85.82,229.09 85.51,229.07 85.19,229.06 84.88,229.07 84.57,229.08 84.26,229.1 83.94,229.13 83.63,229.17 83.33,229.22 83.02,229.28 82.71,229.35 82.41,229.43 82.11,229.52 81.81,229.62 81.52,229.72 81.23,229.84 80.95,229.97 80.66,230.1 80.39,230.25 80.11,230.4 79.85,230.56 79.58,230.73 79.33,230.91 79.08,231.1 78.83,231.29 78.59,231.5 78.36,231.7 78.13,231.92 77.92,232.15 77.7,232.38 77.5,232.61 77.3,232.86 77.12,233.11 76.94,233.36 "
       style="fill:#ff0000;stroke-width:0.75"
       id="polygon951" />
    <polygon
       points="84.13,248.7 84.45,248.72 84.76,248.74 85.08,248.74 85.39,248.73 85.71,248.72 86.02,248.69 86.33,248.66 86.65,248.61 86.96,248.56 87.26,248.49 87.57,248.42 87.87,248.33 88.17,248.24 88.47,248.13 88.77,248.02 89.06,247.89 89.34,247.76 89.62,247.62 89.9,247.47 90.17,247.31 90.44,247.14 90.7,246.97 90.96,246.78 91.21,246.59 91.45,246.39 91.69,246.18 91.91,245.97 92.14,245.74 92.35,245.51 92.56,245.28 92.76,245.03 92.95,244.78 93.14,244.53 93.31,244.27 93.48,244 93.64,243.73 93.79,243.45 93.93,243.17 94.06,242.88 94.19,242.59 94.3,242.3 94.4,242 94.5,241.7 94.58,241.4 94.66,241.09 94.72,240.78 94.78,240.47 94.82,240.16 94.86,239.85 94.88,239.53 94.9,239.22 94.9,238.9 85.07,238.9 76.5,243.75 76.66,244.02 76.83,244.28 77.01,244.54 77.19,244.8 77.39,245.05 77.59,245.29 77.79,245.53 78.01,245.76 78.23,245.98 78.46,246.2 78.7,246.4 78.94,246.6 79.19,246.8 79.45,246.98 79.71,247.16 79.98,247.32 80.25,247.48 80.53,247.63 80.81,247.77 81.1,247.9 81.39,248.03 81.68,248.14 81.98,248.24 82.28,248.34 82.58,248.42 82.89,248.5 83.2,248.56 83.51,248.62 83.82,248.66 "
       style="fill:#0000ff;stroke-width:0.75"
       id="polygon953" />
    <polygon
       points="145.94,108.18 145.63,108.14 145.32,108.11 145,108.09 144.69,108.07 144.38,108.07 144.07,108.08 143.76,108.1 143.45,108.13 143.14,108.17 142.83,108.22 142.52,108.28 142.22,108.34 141.92,108.42 141.62,108.51 141.32,108.61 141.03,108.71 140.74,108.83 140.45,108.95 140.17,109.08 139.89,109.23 139.62,109.38 139.35,109.54 139.09,109.7 138.83,109.88 138.58,110.06 138.34,110.26 138.1,110.46 137.86,110.66 137.64,110.88 137.42,111.1 137.21,111.33 137,111.56 136.8,111.8 136.61,112.05 136.43,112.3 136.26,112.56 136.09,112.83 135.94,113.1 135.79,113.37 135.65,113.65 135.52,113.93 135.4,114.22 135.28,114.51 135.18,114.8 135.09,115.1 135,115.4 134.93,115.71 134.86,116.01 134.81,116.32 134.76,116.63 134.73,116.93 134.7,117.25 134.68,117.56 134.68,117.87 134.68,118.18 134.7,118.49 134.72,118.8 134.75,119.11 134.79,119.42 134.85,119.73 134.91,120.03 134.98,120.34 135.06,120.64 135.15,120.94 135.26,121.23 135.37,121.52 135.48,121.81 135.61,122.1 135.75,122.38 135.9,122.65 136.05,122.92 136.21,123.19 136.38,123.45 136.56,123.7 136.75,123.95 136.95,124.19 137.15,124.43 137.36,124.66 137.58,124.89 137.8,125.1 138.03,125.31 138.27,125.51 138.51,125.71 138.76,125.89 139.02,126.07 139.28,126.24 139.55,126.4 139.82,126.56 140.1,126.7 140.38,126.84 140.66,126.96 140.95,127.08 141.24,127.19 141.54,127.29 141.84,127.38 142.14,127.46 142.44,127.53 142.75,127.59 143.05,127.64 143.36,127.68 143.67,127.71 143.98,127.73 144.3,127.75 144.61,127.75 144.92,127.74 145.23,127.72 144.52,117.91 154.35,117.91 154.35,117.6 154.33,117.29 154.31,116.98 154.28,116.67 154.23,116.36 154.18,116.05 154.11,115.75 154.04,115.44 153.96,115.14 153.86,114.85 153.76,114.55 153.65,114.26 153.53,113.97 153.4,113.69 153.26,113.41 153.12,113.13 152.96,112.86 152.8,112.6 152.62,112.34 152.44,112.08 152.25,111.84 152.06,111.59 151.85,111.36 151.64,111.13 151.42,110.91 151.2,110.69 150.97,110.48 150.73,110.28 150.48,110.09 150.23,109.9 149.98,109.73 149.71,109.56 149.45,109.4 149.18,109.25 148.9,109.1 148.62,108.97 148.33,108.84 148.04,108.73 147.75,108.62 147.45,108.52 147.15,108.43 146.85,108.35 146.55,108.29 146.24,108.23 "
       style="fill:#ff0000;stroke-width:0.75"
       id="polygon955" />
    <polygon
       points="147.12,127.4 147.43,127.31 147.73,127.21 148.04,127.1 148.33,126.98 148.63,126.85 148.91,126.71 149.2,126.56 149.48,126.41 149.75,126.24 150.02,126.07 150.28,125.88 150.54,125.69 150.79,125.49 151.03,125.28 151.27,125.06 151.5,124.84 151.72,124.61 151.94,124.37 152.14,124.13 152.34,123.88 152.53,123.62 152.71,123.35 152.88,123.08 153.05,122.81 153.2,122.53 153.35,122.24 153.49,121.95 153.61,121.66 153.73,121.36 153.84,121.06 153.93,120.75 154.02,120.45 154.1,120.13 154.17,119.82 154.22,119.51 154.27,119.19 154.31,118.87 154.33,118.55 154.35,118.23 154.35,117.91 144.52,117.91 145.23,127.72 145.55,127.69 145.87,127.66 146.18,127.61 146.5,127.55 146.81,127.48 "
       style="fill:#0000ff;stroke-width:0.75"
       id="polygon957" />
    <polygon
       points="228.23,147.95 227.92,147.99 227.61,148.05 227.31,148.12 227.01,148.2 226.71,148.28 226.41,148.38 226.12,148.48 225.83,148.6 225.54,148.72 225.26,148.85 224.99,148.99 224.71,149.15 224.44,149.3 224.18,149.47 223.92,149.65 223.67,149.83 223.43,150.02 223.19,150.22 222.95,150.43 222.73,150.64 222.51,150.86 222.3,151.09 222.09,151.32 221.89,151.56 221.7,151.81 221.52,152.06 221.35,152.32 221.18,152.58 221.02,152.85 220.87,153.13 220.73,153.4 220.6,153.69 220.48,153.97 220.37,154.26 220.26,154.56 220.17,154.85 220.08,155.15 220.01,155.46 219.94,155.76 219.89,156.07 219.84,156.38 219.8,156.68 219.78,156.99 219.76,157.31 219.75,157.62 219.75,157.93 219.77,158.24 219.79,158.55 219.82,158.86 219.86,159.17 219.92,159.48 219.98,159.78 220.05,160.08 220.13,160.39 220.22,160.68 220.32,160.98 220.43,161.27 220.55,161.56 220.67,161.84 220.81,162.12 220.95,162.4 221.11,162.67 221.27,162.94 221.44,163.2 221.62,163.45 221.8,163.7 222,163.95 222.2,164.18 222.41,164.41 222.63,164.64 222.85,164.85 223.08,165.06 223.32,165.27 223.56,165.46 223.81,165.65 224.06,165.83 224.32,166 224.59,166.16 224.86,166.31 225.13,166.46 225.41,166.6 225.7,166.72 225.99,166.84 226.28,166.95 226.57,167.05 226.87,167.14 227.17,167.22 227.47,167.3 229.59,157.69 239.43,157.69 239.42,157.38 239.41,157.07 239.38,156.76 239.35,156.45 239.31,156.14 239.25,155.83 239.19,155.53 239.11,155.22 239.03,154.92 238.94,154.63 238.84,154.33 238.73,154.04 238.61,153.75 238.48,153.47 238.34,153.19 238.19,152.92 238.04,152.65 237.87,152.38 237.7,152.12 237.52,151.87 237.33,151.62 237.14,151.38 236.93,151.14 236.72,150.91 236.5,150.69 236.28,150.47 236.05,150.27 235.81,150.07 235.56,149.87 235.31,149.69 235.06,149.51 234.8,149.34 234.53,149.18 234.26,149.03 233.98,148.89 233.7,148.75 233.42,148.63 233.13,148.51 232.83,148.4 232.54,148.3 232.24,148.21 231.94,148.14 231.64,148.07 231.33,148.01 231.02,147.96 230.71,147.92 230.4,147.88 230.09,147.86 229.78,147.85 229.47,147.85 229.16,147.86 228.85,147.88 228.54,147.91 "
       style="fill:#ff0000;stroke-width:0.75"
       id="polygon959" />
    <polygon
       points="235.63,165.46 235.88,165.26 236.12,165.05 236.36,164.83 236.58,164.61 236.81,164.38 237.02,164.14 237.22,163.89 237.42,163.64 237.61,163.39 237.79,163.12 237.96,162.85 238.13,162.58 238.28,162.3 238.43,162.01 238.56,161.72 238.69,161.43 238.81,161.13 238.91,160.83 239.01,160.53 239.1,160.22 239.17,159.91 239.24,159.6 239.3,159.28 239.35,158.96 239.38,158.65 239.41,158.33 239.42,158.01 239.43,157.69 229.59,157.69 227.47,167.3 227.79,167.36 228.1,167.41 228.42,167.46 228.74,167.49 229.06,167.51 229.38,167.52 229.7,167.53 230.02,167.52 230.33,167.5 230.65,167.47 230.97,167.43 231.29,167.38 231.6,167.32 231.91,167.25 232.22,167.17 232.53,167.08 232.83,166.98 233.13,166.87 233.43,166.75 233.72,166.62 234.01,166.48 234.29,166.33 234.57,166.17 234.84,166.01 235.11,165.83 235.37,165.65 "
       style="fill:#0000ff;stroke-width:0.75"
       id="polygon961" />
    <polygon
       points="194.83,352.99 194.6,352.76 194.37,352.55 194.12,352.34 193.88,352.14 193.62,351.94 193.36,351.76 193.09,351.59 192.82,351.42 192.54,351.26 192.26,351.11 191.97,350.97 191.68,350.84 191.39,350.72 191.09,350.61 190.79,350.51 190.48,350.42 190.17,350.34 189.86,350.27 189.55,350.21 189.23,350.16 188.92,350.12 188.6,350.09 188.28,350.07 187.96,350.06 187.64,350.06 187.32,350.07 187,350.09 186.69,350.12 186.37,350.16 186.06,350.21 185.74,350.28 185.43,350.35 187.82,359.89 197.66,359.89 197.66,359.57 197.64,359.25 197.61,358.94 197.58,358.62 197.53,358.3 197.47,357.99 197.41,357.68 197.33,357.37 197.24,357.06 197.15,356.76 197.04,356.46 196.92,356.16 196.8,355.87 196.66,355.58 196.52,355.29 196.37,355.01 196.2,354.74 196.03,354.47 195.85,354.21 195.66,353.95 195.47,353.7 195.26,353.45 195.05,353.22 "
       style="fill:#ff0000;stroke-width:0.75"
       id="polygon963" />
    <polygon
       points="178.83,363.88 178.96,364.16 179.1,364.44 179.25,364.71 179.4,364.98 179.57,365.25 179.74,365.51 179.92,365.76 180.11,366.01 180.31,366.25 180.52,366.48 180.73,366.71 180.95,366.93 181.17,367.15 181.41,367.35 181.65,367.55 181.89,367.74 182.14,367.93 182.4,368.1 182.66,368.27 182.93,368.43 183.21,368.58 183.48,368.72 183.76,368.86 184.05,368.98 184.34,369.09 184.63,369.2 184.93,369.3 185.23,369.38 185.53,369.46 185.84,369.53 186.14,369.59 186.45,369.63 186.76,369.67 187.07,369.7 187.38,369.72 187.69,369.73 188,369.73 188.32,369.72 188.63,369.7 188.94,369.67 189.25,369.63 189.55,369.58 189.86,369.52 190.16,369.45 190.46,369.37 190.76,369.28 191.06,369.18 191.35,369.08 191.64,368.96 191.93,368.83 192.21,368.7 192.48,368.56 192.76,368.4 193.02,368.24 193.29,368.07 193.54,367.9 193.79,367.71 194.04,367.52 194.28,367.32 194.51,367.11 194.73,366.9 194.95,366.67 195.16,366.44 195.37,366.21 195.56,365.97 195.75,365.72 195.93,365.46 196.1,365.2 196.27,364.94 196.42,364.67 196.57,364.39 196.71,364.11 196.84,363.83 196.96,363.54 197.07,363.25 197.17,362.96 197.26,362.66 197.35,362.36 197.42,362.06 197.48,361.75 197.54,361.44 197.58,361.14 197.62,360.83 197.64,360.52 197.66,360.2 197.66,359.89 187.82,359.89 185.43,350.35 185.13,350.43 184.83,350.52 184.54,350.62 184.25,350.73 183.96,350.85 183.67,350.97 183.39,351.11 183.12,351.25 182.84,351.41 182.58,351.57 182.32,351.74 182.06,351.92 181.81,352.1 181.57,352.3 181.33,352.5 181.1,352.71 180.88,352.93 180.66,353.15 180.45,353.38 180.25,353.62 180.05,353.86 179.86,354.11 179.68,354.36 179.51,354.62 179.35,354.89 179.2,355.16 179.05,355.44 178.91,355.72 178.79,356 178.67,356.29 178.56,356.58 178.46,356.88 178.37,357.17 178.29,357.48 178.21,357.78 178.15,358.08 178.1,358.39 178.06,358.7 178.02,359.01 178,359.32 177.99,359.63 177.98,359.94 177.99,360.26 178.01,360.57 178.03,360.88 178.07,361.19 178.12,361.49 178.17,361.8 178.24,362.11 178.31,362.41 178.4,362.71 178.49,363.01 178.59,363.3 178.71,363.59 "
       style="fill:#0000ff;stroke-width:0.75"
       id="polygon965" />
    <polygon
       points="292.92,442.76 292.91,442.54 283.08,442.76 "
       style="fill:#ff0000;stroke-width:0.75"
       id="polygon967" />
    <polygon
       points="292.92,442.76 283.08,442.76 292.91,442.54 292.9,442.23 292.88,441.92 292.85,441.61 292.81,441.3 292.76,440.99 292.7,440.69 292.62,440.38 292.54,440.08 292.46,439.78 292.36,439.49 292.25,439.2 292.13,438.91 292,438.63 291.87,438.35 291.73,438.07 291.57,437.8 291.41,437.53 291.24,437.27 291.06,437.02 290.88,436.77 290.69,436.52 290.48,436.29 290.28,436.06 290.06,435.83 289.84,435.61 289.61,435.4 289.37,435.2 289.13,435.01 288.88,434.82 288.63,434.64 288.37,434.47 288.1,434.3 287.83,434.15 287.56,434 287.28,433.87 287,433.74 286.71,433.62 286.42,433.51 286.12,433.41 285.83,433.32 285.53,433.23 285.22,433.16 284.92,433.1 284.61,433.05 284.31,433 284,432.97 283.69,432.94 283.38,432.93 283.06,432.92 282.75,432.93 282.44,432.95 282.13,432.97 281.82,433.01 281.52,433.05 281.21,433.1 280.91,433.17 280.6,433.24 280.3,433.32 280.01,433.42 279.71,433.52 279.42,433.63 279.14,433.75 278.85,433.88 278.57,434.02 278.3,434.16 278.03,434.32 277.77,434.48 277.51,434.66 277.25,434.84 277.01,435.02 276.76,435.22 276.53,435.42 276.3,435.63 276.08,435.85 275.86,436.08 275.65,436.31 275.45,436.55 275.26,436.79 275.08,437.04 274.9,437.3 274.73,437.56 274.57,437.82 274.42,438.1 274.28,438.37 274.14,438.65 274.02,438.94 273.9,439.22 273.79,439.52 273.69,439.81 273.61,440.11 273.53,440.41 273.46,440.71 273.4,441.02 273.35,441.33 273.31,441.63 273.28,441.94 273.25,442.25 273.24,442.57 273.24,442.88 273.25,443.19 273.27,443.5 273.3,443.81 273.33,444.12 273.38,444.42 273.44,444.73 273.51,445.03 273.58,445.33 273.67,445.63 273.76,445.93 273.87,446.22 273.98,446.51 274.11,446.8 274.24,447.08 274.38,447.36 274.53,447.63 274.69,447.9 274.85,448.16 275.03,448.42 275.21,448.67 275.4,448.91 275.6,449.15 275.81,449.39 276.02,449.61 276.24,449.83 276.47,450.05 276.7,450.25 276.94,450.45 277.19,450.64 277.44,450.82 277.69,451 277.96,451.16 278.23,451.32 278.5,451.47 278.78,451.61 279.06,451.74 279.34,451.86 279.63,451.98 279.93,452.08 280.22,452.18 280.52,452.26 280.82,452.34 281.13,452.41 281.43,452.46 281.74,452.51 282.05,452.55 282.36,452.57 282.67,452.59 282.98,452.6 283.29,452.6 283.6,452.59 283.91,452.57 284.22,452.53 284.53,452.49 284.84,452.44 285.14,452.38 285.45,452.31 285.75,452.23 286.04,452.14 286.34,452.05 286.63,451.94 286.92,451.82 287.2,451.69 287.48,451.56 287.76,451.42 288.03,451.26 288.3,451.1 288.56,450.93 288.81,450.76 289.06,450.57 289.31,450.38 289.55,450.18 289.78,449.97 290,449.75 290.22,449.53 290.43,449.3 290.63,449.07 290.83,448.83 291.01,448.58 291.19,448.32 291.37,448.06 291.53,447.8 291.69,447.53 291.83,447.26 291.97,446.98 292.1,446.69 292.22,446.41 292.33,446.12 292.43,445.82 292.52,445.52 292.6,445.22 292.68,444.92 292.74,444.62 292.79,444.31 292.84,444 292.87,443.69 292.9,443.38 292.91,443.07 "
       style="fill:#0000ff;stroke-width:0.75"
       id="polygon969" />
    <polygon
       points="366.28,484.83 366.14,484.54 365.98,484.26 365.82,483.99 365.64,483.72 365.46,483.45 365.27,483.2 365.07,482.94 364.86,482.7 364.65,482.46 364.42,482.23 364.19,482.01 363.96,481.79 363.71,481.58 363.46,481.38 363.2,481.19 362.94,481.01 362.67,480.83 362.4,480.67 362.12,480.51 361.83,480.36 361.54,480.22 361.25,480.09 360.95,479.97 360.65,479.87 360.34,479.77 360.03,479.68 359.72,479.6 359.41,479.53 359.09,479.47 358.78,479.42 357.45,489.17 367.29,489.17 367.29,488.85 367.27,488.53 367.24,488.21 367.21,487.89 367.16,487.57 367.1,487.26 367.03,486.94 366.96,486.63 366.87,486.32 366.77,486.02 366.66,485.71 366.55,485.42 366.42,485.12 "
       style="fill:#ff0000;stroke-width:0.75"
       id="polygon971" />
    <polygon
       points="348.19,485.86 348.09,486.15 348,486.45 347.92,486.75 347.84,487.05 347.78,487.36 347.73,487.67 347.69,487.98 347.65,488.29 347.63,488.6 347.62,488.91 347.61,489.22 347.62,489.53 347.64,489.84 347.66,490.15 347.7,490.46 347.75,490.77 347.8,491.08 347.87,491.38 347.94,491.69 348.03,491.99 348.12,492.28 348.22,492.58 348.34,492.87 348.46,493.15 348.59,493.44 348.73,493.72 348.88,493.99 349.03,494.26 349.2,494.52 349.37,494.78 349.55,495.04 349.74,495.28 349.94,495.52 350.15,495.76 350.36,495.99 350.58,496.21 350.8,496.42 351.04,496.63 351.28,496.83 351.52,497.02 351.77,497.2 352.03,497.38 352.29,497.55 352.56,497.71 352.83,497.86 353.11,498 353.39,498.13 353.68,498.26 353.97,498.37 354.26,498.48 354.56,498.57 354.86,498.66 355.16,498.74 355.46,498.81 355.77,498.86 356.08,498.91 356.39,498.95 356.7,498.98 357.01,499 357.32,499.01 357.63,499.01 357.94,499 358.26,498.98 358.57,498.95 358.87,498.91 359.18,498.86 359.49,498.8 359.79,498.73 360.09,498.65 360.39,498.56 360.69,498.46 360.98,498.35 361.27,498.24 361.56,498.11 361.84,497.98 362.11,497.83 362.39,497.68 362.65,497.52 362.91,497.35 363.17,497.18 363.42,496.99 363.67,496.8 363.91,496.6 364.14,496.39 364.36,496.17 364.58,495.95 364.79,495.72 365,495.49 365.19,495.24 365.38,495 365.56,494.74 365.73,494.48 365.9,494.22 366.05,493.95 366.2,493.67 366.34,493.39 366.47,493.11 366.59,492.82 366.7,492.53 366.8,492.24 366.89,491.94 366.98,491.64 367.05,491.33 367.11,491.03 367.17,490.72 367.21,490.41 367.25,490.1 367.27,489.79 367.29,489.48 367.29,489.17 357.45,489.17 358.78,479.42 358.47,479.38 358.16,479.36 357.85,479.34 357.53,479.33 357.22,479.33 356.91,479.35 356.6,479.37 356.29,479.4 355.98,479.44 355.67,479.49 355.37,479.56 355.06,479.63 354.76,479.71 354.46,479.8 354.17,479.9 353.88,480 353.59,480.12 353.3,480.25 353.02,480.39 352.75,480.53 352.48,480.68 352.21,480.85 351.95,481.02 351.69,481.19 351.44,481.38 351.2,481.57 350.96,481.78 350.73,481.99 350.51,482.2 350.29,482.43 350.08,482.66 349.88,482.89 349.68,483.14 349.49,483.39 349.32,483.64 349.14,483.9 348.98,484.17 348.83,484.44 348.68,484.71 348.55,484.99 348.42,485.28 348.3,485.57 "
       style="fill:#0000ff;stroke-width:0.75"
       id="polygon973" />
    <polygon
       points="515.7,527.09 515.64,526.78 515.56,526.48 515.48,526.18 515.39,525.88 515.29,525.58 515.17,525.29 515.05,525 514.92,524.72 514.79,524.44 514.64,524.17 514.48,523.89 514.32,523.63 514.14,523.37 513.96,523.12 513.77,522.87 513.58,522.62 513.37,522.39 513.16,522.16 512.94,521.94 512.72,521.72 512.48,521.51 512.24,521.31 512,521.12 511.75,520.93 511.49,520.76 511.23,520.59 510.96,520.43 510.69,520.28 510.41,520.13 510.13,520 509.84,519.87 509.55,519.76 509.26,519.65 508.96,519.55 508.66,519.47 508.36,519.39 508.06,519.32 507.75,519.26 507.44,519.21 507.13,519.17 506.82,519.14 506.51,519.12 506.2,519.11 505.89,519.11 505.57,519.12 505.26,519.14 504.95,519.17 504.64,519.21 504.33,519.26 504.03,519.32 503.72,519.39 503.42,519.47 503.12,519.55 502.82,519.65 502.53,519.76 502.24,519.87 501.96,520 501.67,520.13 501.4,520.28 501.12,520.43 500.86,520.59 500.59,520.76 500.34,520.93 500.08,521.12 499.84,521.31 499.6,521.51 499.37,521.72 499.14,521.94 498.92,522.16 498.71,522.39 498.51,522.62 498.31,522.86 498.12,523.11 497.94,523.37 497.77,523.63 497.6,523.89 497.45,524.16 497.3,524.44 497.16,524.72 497.03,525 496.91,525.29 496.8,525.58 496.69,525.88 496.6,526.17 496.52,526.47 496.45,526.78 496.38,527.08 496.33,527.39 496.28,527.7 496.25,528.01 496.22,528.32 496.21,528.63 496.2,528.95 496.21,529.26 496.22,529.57 496.25,529.88 496.28,530.19 496.33,530.5 496.38,530.81 496.44,531.11 496.52,531.42 496.6,531.72 496.69,532.01 496.8,532.31 496.91,532.6 497.03,532.89 497.16,533.17 497.29,533.45 497.44,533.73 497.6,534 497.76,534.26 497.94,534.52 498.12,534.78 498.31,535.03 498.5,535.27 498.71,535.51 498.92,535.73 499.14,535.96 499.36,536.17 499.6,536.38 499.83,536.58 500.08,536.77 500.33,536.96 500.59,537.14 500.85,537.31 501.12,537.47 501.39,537.62 501.67,537.76 501.95,537.9 502.24,538.02 502.53,538.14 502.82,538.24 503.12,538.34 503.42,538.43 503.72,538.51 504.02,538.58 504.33,538.64 504.64,538.69 504.95,538.73 505.26,538.75 505.57,538.77 505.88,538.78 506.19,538.79 506.5,538.78 506.82,538.76 507.13,538.73 507.44,538.69 507.74,538.64 508.05,538.58 508.36,538.51 508.66,538.43 508.96,538.34 509.25,538.25 509.55,538.14 509.84,538.02 510.12,537.9 510.41,537.77 510.68,537.62 510.96,537.47 511.22,537.31 511.49,537.14 511.74,536.96 511.99,536.78 512.24,536.59 512.48,536.39 512.71,536.18 512.94,535.96 513.16,535.74 513.37,535.51 513.57,535.28 513.77,535.03 513.96,534.79 514.14,534.53 514.31,534.27 514.48,534.01 514.64,533.74 514.78,533.46 514.92,533.18 515.05,532.9 515.17,532.61 515.28,532.32 515.39,532.02 515.48,531.73 515.56,531.42 506.04,528.95 515.88,528.95 515.87,528.64 515.86,528.32 515.83,528.01 515.8,527.7 515.76,527.39 "
       style="fill:#ff0000;stroke-width:0.75"
       id="polygon975" />
    <polygon
       points="515.56,531.42 515.65,531.08 515.72,530.73 515.78,530.37 515.82,530.02 515.85,529.66 515.87,529.31 515.88,528.95 506.04,528.95 "
       style="fill:#0000ff;stroke-width:0.75"
       id="polygon977" />
    <polygon
       points="247.15,267.18 247.14,277.02 256.98,277.02 256.97,276.7 256.96,276.38 256.93,276.06 256.89,275.74 256.85,275.42 256.79,275.1 256.72,274.79 256.64,274.48 256.55,274.17 256.46,273.86 256.35,273.56 256.23,273.26 256.1,272.97 255.96,272.67 255.82,272.39 255.66,272.11 255.5,271.83 255.32,271.56 255.14,271.3 254.95,271.04 254.75,270.79 254.54,270.54 254.32,270.3 254.1,270.07 253.87,269.85 253.63,269.63 253.39,269.42 253.13,269.22 252.88,269.03 252.61,268.85 252.34,268.67 252.07,268.51 251.79,268.35 251.5,268.2 251.21,268.07 250.91,267.94 250.61,267.82 250.31,267.71 250.01,267.61 249.7,267.52 249.38,267.44 249.07,267.38 248.75,267.32 248.44,267.27 248.12,267.23 247.8,267.21 247.47,267.19 "
       style="fill:#ff0000;stroke-width:0.75"
       id="polygon979" />
    <polygon
       points="237.34,276.18 237.32,276.49 237.3,276.81 237.3,277.12 237.31,277.43 237.33,277.74 237.35,278.05 237.39,278.36 237.44,278.67 237.5,278.97 237.56,279.28 237.64,279.58 237.72,279.88 237.82,280.17 237.92,280.47 238.04,280.76 238.16,281.04 238.29,281.32 238.43,281.6 238.58,281.87 238.74,282.14 238.91,282.41 239.08,282.66 239.26,282.92 239.45,283.16 239.65,283.4 239.86,283.64 240.07,283.86 240.29,284.08 240.52,284.3 240.75,284.5 240.99,284.7 241.23,284.89 241.49,285.07 241.74,285.25 242.01,285.42 242.28,285.57 242.55,285.72 242.83,285.86 243.11,286 243.39,286.12 243.68,286.23 243.98,286.34 244.27,286.43 244.57,286.52 244.87,286.6 245.18,286.66 245.48,286.72 245.79,286.77 246.1,286.81 246.41,286.83 246.72,286.85 247.03,286.86 247.34,286.86 247.65,286.85 247.96,286.83 248.27,286.79 248.58,286.75 248.89,286.7 249.19,286.64 249.5,286.57 249.8,286.49 250.1,286.41 250.39,286.31 250.68,286.2 250.97,286.08 251.26,285.96 251.54,285.82 251.81,285.68 252.09,285.53 252.35,285.37 252.61,285.2 252.87,285.02 253.12,284.83 253.36,284.64 253.6,284.44 253.83,284.23 254.06,284.02 254.28,283.79 254.49,283.57 254.69,283.33 254.88,283.09 255.07,282.84 255.25,282.59 255.42,282.33 255.59,282.06 255.74,281.79 255.89,281.52 256.03,281.24 256.16,280.96 256.28,280.67 256.39,280.38 256.49,280.08 256.58,279.79 256.66,279.49 256.74,279.18 256.8,278.88 256.85,278.57 256.9,278.26 256.93,277.95 256.96,277.64 256.97,277.33 256.98,277.02 247.14,277.02 247.15,267.18 246.84,267.19 246.53,267.2 246.22,267.23 245.91,267.26 245.6,267.3 245.3,267.36 244.99,267.42 244.69,267.49 244.39,267.58 244.09,267.67 243.8,267.77 243.51,267.88 243.22,268 242.94,268.13 242.66,268.27 242.38,268.41 242.11,268.57 241.85,268.73 241.59,268.9 241.33,269.08 241.08,269.27 240.84,269.46 240.61,269.67 240.38,269.88 240.15,270.09 239.94,270.32 239.73,270.55 239.53,270.79 239.34,271.03 239.15,271.28 238.97,271.54 238.8,271.8 238.64,272.06 238.49,272.34 238.35,272.61 238.21,272.89 238.08,273.18 237.97,273.46 237.86,273.76 237.76,274.05 237.67,274.35 237.59,274.65 237.52,274.95 237.46,275.26 237.41,275.57 237.37,275.87 "
       style="fill:#0000ff;stroke-width:0.75"
       id="polygon981" />
    <polygon
       points="447.48,307.26 447.17,307.34 446.87,307.43 446.58,307.53 446.28,307.64 445.99,307.76 445.71,307.88 445.42,308.02 445.15,308.17 444.87,308.32 444.61,308.49 444.34,308.66 444.09,308.84 443.84,309.03 443.59,309.22 443.35,309.43 443.12,309.64 442.9,309.86 442.68,310.08 442.47,310.31 442.27,310.55 442.07,310.8 441.88,311.05 441.7,311.31 441.53,311.57 441.37,311.84 441.22,312.11 441.07,312.39 440.94,312.67 440.81,312.96 440.69,313.25 440.58,313.54 440.48,313.84 440.39,314.14 440.31,314.44 440.24,314.75 440.18,315.06 440.13,315.36 440.09,315.68 440.06,315.99 440.04,316.3 440.03,316.61 440.03,316.93 440.04,317.24 440.06,317.55 440.09,317.87 440.12,318.18 440.17,318.49 440.23,318.79 440.3,319.1 440.38,319.4 440.47,319.7 440.56,320 440.67,320.3 440.79,320.59 440.91,320.88 441.05,321.16 441.19,321.44 441.34,321.71 441.5,321.98 441.67,322.24 441.85,322.5 442.04,322.76 442.23,323 442.43,323.24 442.64,323.48 442.86,323.7 443.08,323.92 443.31,324.13 443.55,324.34 443.79,324.54 444.04,324.73 444.29,324.91 444.56,325.08 444.82,325.25 445.09,325.4 445.37,325.55 445.65,325.69 445.94,325.82 446.23,325.94 446.52,326.05 446.82,326.15 447.12,326.25 449.87,316.8 459.7,316.8 459.7,316.49 459.68,316.17 459.66,315.86 459.62,315.55 459.58,315.24 459.52,314.93 459.46,314.62 459.39,314.32 459.3,314.02 459.21,313.72 459.11,313.42 458.99,313.13 458.87,312.84 458.74,312.56 458.6,312.27 458.45,312 458.3,311.73 458.13,311.46 457.96,311.2 457.77,310.95 457.58,310.7 457.38,310.45 457.18,310.22 456.96,309.99 456.74,309.77 456.52,309.55 456.28,309.34 456.04,309.14 455.79,308.95 455.54,308.76 455.28,308.59 455.02,308.42 454.75,308.26 454.47,308.11 454.19,307.97 453.91,307.83 453.62,307.71 453.33,307.59 453.04,307.49 452.74,307.39 452.44,307.3 452.13,307.23 451.83,307.16 451.52,307.1 451.21,307.05 450.9,307.02 450.59,306.99 450.27,306.97 449.96,306.96 449.65,306.96 449.33,306.98 449.02,307 448.71,307.03 448.4,307.07 448.09,307.12 447.78,307.19 "
       style="fill:#ff0000;stroke-width:0.75"
       id="polygon983" />
    <polygon
       points="452.7,326.22 453,326.13 453.29,326.02 453.59,325.91 453.88,325.78 454.16,325.65 454.44,325.51 454.72,325.36 454.99,325.2 455.26,325.03 455.52,324.85 455.77,324.67 456.02,324.48 456.26,324.28 456.5,324.07 456.73,323.85 456.95,323.63 457.16,323.4 457.37,323.16 457.57,322.92 457.76,322.67 457.94,322.41 458.12,322.15 458.29,321.89 458.44,321.62 458.59,321.34 458.74,321.06 458.87,320.77 458.99,320.48 459.1,320.19 459.21,319.89 459.3,319.59 459.38,319.29 459.46,318.98 459.52,318.68 459.58,318.37 459.62,318.05 459.66,317.74 459.68,317.43 459.7,317.11 459.7,316.8 449.87,316.8 447.12,326.25 447.42,326.33 447.72,326.4 448.03,326.47 448.34,326.52 448.65,326.56 448.97,326.6 449.28,326.62 449.59,326.63 449.91,326.64 450.22,326.63 450.54,326.62 450.85,326.59 451.16,326.55 451.47,326.51 451.78,326.45 452.09,326.38 452.4,326.31 "
       style="fill:#0000ff;stroke-width:0.75"
       id="polygon985" />
    <circle
       cx="206.33"
       cy="78.129997"
       r="9.8400002"
       style="fill:#ff0000;stroke-width:0.75"
       id="circle987" />
    <circle
       cx="310.67999"
       cy="184.21001"
       r="9.8400002"
       style="fill:#ff0000;stroke-width:0.75"
       id="circle989" />
    <circle
       cx="435.84"
       cy="131.17"
       r="9.8400002"
       style="fill:#0000ff;stroke-width:0.75"
       id="circle991" />
    <circle
       cx="283.81"
       cy="396.35999"
       r="9.8400002"
       style="fill:#0000ff;stroke-width:0.75"
       id="circle993" />
    <circle
       cx="456.75"
       cy="449.39001"
       r="9.8400002"
       style="fill:#0000ff;stroke-width:0.75"
       id="circle995" />
    <circle
       cx="552.37"
       cy="555.46997"
       r="9.8400002"
       style="fill:#ff0000;stroke-width:0.75"
       id="circle997" />
    <circle
       cx="527.09003"
       cy="502.42999"
       r="9.8400002"
       style="fill:#ff0000;stroke-width:0.75"
       id="circle999" />
    <circle
       cx="503"
       cy="343.32001"
       r="9.8400002"
       style="fill:#ff0000;stroke-width:0.75"
       id="circle1001" />
    <circle
       cx="666.32001"
       cy="290.28"
       r="9.8400002"
       style="fill:#0000ff;stroke-width:0.75"
       id="circle1003" />
    <circle
       cx="315.39001"
       cy="237.24001"
       r="9.8400002"
       style="fill:#0000ff;stroke-width:0.75"
       id="circle1005" />
  </g>
  <text
     x="85.07"
     y="600.47998"
     text-anchor="middle"
     style="font-size:12px;font-family:Arial"
     textLength="26.700001"
     lengthAdjust="spacingAndGlyphs"
     id="text939"
     transform="translate(0,203.7551)">2000</text>
  <text
     x="233.24001"
     y="600.47998"
     text-anchor="middle"
     style="font-size:12px;font-family:Arial"
     textLength="26.700001"
     lengthAdjust="spacingAndGlyphs"
     id="text941"
     transform="translate(0,203.7551)">2002</text>
  <text
     x="381.41"
     y="600.47998"
     text-anchor="middle"
     style="font-size:12px;font-family:Arial"
     textLength="26.700001"
     lengthAdjust="spacingAndGlyphs"
     id="text943"
     transform="translate(0,203.7551)">2004</text>
  <text
     x="529.59003"
     y="600.47998"
     text-anchor="middle"
     style="font-size:12px;font-family:Arial"
     textLength="26.700001"
     lengthAdjust="spacingAndGlyphs"
     id="text945"
     transform="translate(0,203.7551)">2006</text>
  <text
     x="677.76001"
     y="600.47998"
     text-anchor="middle"
     style="font-size:12px;font-family:Arial"
     textLength="26.700001"
     lengthAdjust="spacingAndGlyphs"
     id="text947"
     transform="translate(0,203.7551)">2008</text>
  <text
     xml:space="preserve"
     transform="matrix(0.75,0,0,0.75,593.68382,83.448546)"
     id="text2734"
     style="font-size:16px;white-space:pre;shape-inside:url(#rect2736);display:inline;fill:#000000"><tspan
       x="139.49219"
       y="931.00158"
       id="tspan26539">Time
</tspan></text>
  <g
     id="g3212"
     transform="translate(-67.792175,173.086)"
     clip-path="url(#clipPath3251)">
    <line
       x1="152.8622"
       y1="603.74561"
       x2="745.55219"
       y2="603.74561"
       style="fill:none;stroke:#000000;stroke-width:1.5;stroke-linecap:round;stroke-linejoin:round;stroke-miterlimit:10"
       id="line3172" />
    <line
       x1="152.8622"
       y1="603.74561"
       x2="152.8622"
       y2="610.94562"
       style="fill:none;stroke:#000000;stroke-width:1.5;stroke-linecap:round;stroke-linejoin:round;stroke-miterlimit:10"
       id="line3174" />
    <line
       x1="301.0322"
       y1="603.74561"
       x2="301.0322"
       y2="610.94562"
       style="fill:none;stroke:#000000;stroke-width:1.5;stroke-linecap:round;stroke-linejoin:round;stroke-miterlimit:10"
       id="line3176" />
    <line
       x1="449.20218"
       y1="603.74561"
       x2="449.20218"
       y2="610.94562"
       style="fill:none;stroke:#000000;stroke-width:1.5;stroke-linecap:round;stroke-linejoin:round;stroke-miterlimit:10"
       id="line3178" />
    <line
       x1="597.3822"
       y1="603.74561"
       x2="597.3822"
       y2="610.94562"
       style="fill:none;stroke:#000000;stroke-width:1.5;stroke-linecap:round;stroke-linejoin:round;stroke-miterlimit:10"
       id="line3180" />
    <line
       x1="745.55219"
       y1="603.74561"
       x2="745.55219"
       y2="610.94562"
       style="fill:none;stroke:#000000;stroke-width:1.5;stroke-linecap:round;stroke-linejoin:round;stroke-miterlimit:10"
       id="line3182" />
  </g>
  <line
     x1="85.070007"
     y1="674.67236"
     x2="677.76001"
     y2="674.67236"
     style="fill:none;stroke:#000000;stroke-width:1.5;stroke-linecap:round;stroke-linejoin:round;stroke-miterlimit:10"
     id="line927-9-6"
     clip-path="url(#clipPath3620)"
     transform="translate(0,72.154085)" />
  <line
     x1="677.76001"
     y1="674.67236"
     x2="677.76001"
     y2="681.87238"
     style="fill:none;stroke:#000000;stroke-width:1.5;stroke-linecap:round;stroke-linejoin:round;stroke-miterlimit:10"
     id="line937-8-8"
     clip-path="url(#clipPath3580)"
     transform="translate(0,72.154085)" />
  <text
     xml:space="preserve"
     transform="matrix(0.75,0,0,0.75,592.6096,52.37991)"
     id="text3186"
     style="font-size:16px;white-space:pre;shape-inside:url(#rect3188);display:inline;fill:#000000"><tspan
       x="139.49219"
       y="931.00158"
       id="tspan26541">Exports (from blue)</tspan></text>
  <rect
     style="opacity:0.2;fill:#ff0000;stroke:#ffcccc;stroke-width:0.198425;stroke-linecap:square;stroke-linejoin:round"
     id="rect1025"
     width="199.21964"
     height="39.843929"
     x="323.56018"
     y="92.040359" />
  <path
     style="fill:#000000;fill-opacity:0;stroke:#000000;stroke-width:1.60157;stroke-linecap:butt;stroke-linejoin:miter;stroke-miterlimit:10;stroke-dasharray:9.60945, 9.60945;stroke-dashoffset:0.320315;stroke-opacity:0.333333"
     d="M 134.55472,343.93178 V 765.82167"
     id="path1035"
     sodipodi:nodetypes="cc" />
  <path
     style="fill:#000000;fill-opacity:0;stroke:#000000;stroke-width:1.60157;stroke-linecap:butt;stroke-linejoin:miter;stroke-miterlimit:10;stroke-dasharray:9.60945, 9.60945;stroke-dashoffset:0.320315;stroke-opacity:0.333333"
     d="M 431.34782,512.97525 V 765.32342"
     id="path1037"
     sodipodi:nodetypes="cc" />
  <path
     style="fill:none;stroke:#000000;stroke-width:1.60157;stroke-linecap:butt;stroke-linejoin:miter;stroke-miterlimit:10;stroke-dasharray:9.60945, 9.60945;stroke-dashoffset:0.320315;stroke-opacity:0.333333"
     d="M 559.78563,273.86142 V 474.54224"
     id="path1039"
     sodipodi:nodetypes="cc" />
  <path
     style="fill:#000000;fill-opacity:1;stroke:#000000;stroke-width:1.60157;stroke-linecap:butt;stroke-linejoin:miter;stroke-miterlimit:10;stroke-dasharray:9.60945, 9.60945;stroke-dashoffset:0.320315;stroke-opacity:0.333333"
     d="m 559.78563,493.83276 v 35.12243"
     id="path1041"
     sodipodi:nodetypes="cc" />
  <path
     style="fill:#030101;fill-opacity:0.972549;stroke:#000000;stroke-width:1.60157;stroke-linecap:butt;stroke-linejoin:miter;stroke-miterlimit:10;stroke-dasharray:9.60945, 9.60945;stroke-dashoffset:0.320315;stroke-opacity:0.333333"
     d="M 559.78563,559.62437 V 775.35121"
     id="path1045"
     sodipodi:nodetypes="cc" />
  <path
     style="fill:#000000;fill-opacity:0.733333;stroke:#000000;stroke-width:1.602;stroke-linecap:butt;stroke-linejoin:miter;stroke-miterlimit:10;stroke-dasharray:9.61203, 9.61203;stroke-dashoffset:0.320401;stroke-opacity:0.333333"
     d="M 346.78563,300.86142 V 367.5842"
     id="path1047"
     sodipodi:nodetypes="cc" />
  <path
     style="fill:#2564d6;fill-opacity:1;stroke:#000000;stroke-width:1.60157;stroke-linecap:butt;stroke-linejoin:miter;stroke-miterlimit:10;stroke-dasharray:9.60945, 9.60945;stroke-dashoffset:0.320315;stroke-opacity:0.333333"
     d="M 346.78563,393.86142 V 456.8059"
     id="path1049"
     sodipodi:nodetypes="cc" />
  <path
     style="fill:#000000;fill-opacity:0;stroke:#000000;stroke-width:1.60157;stroke-linecap:butt;stroke-linejoin:miter;stroke-miterlimit:10;stroke-dasharray:9.60945, 9.60945;stroke-dashoffset:0.320315;stroke-opacity:0.333333"
     d="M 346.78563,464.22633 V 766.7598"
     id="path1051"
     sodipodi:nodetypes="cc" />
  <path
     id="rect939"
     style="opacity:0.2;fill:#3eb4ec;stroke:#ffcccc;stroke-width:0.198425;stroke-linecap:square;stroke-linejoin:round"
     d="M 127.08838,37.769531 V 77.73633 78.987307 H 112.6626 59.765625 v 43.278803 118.1587 H 112.6626 v -118.1587 h 14.42578 v 1.61719 37.54101 h 42.59179 33.66065 v 21.2959 h 44.65283 32.28808 112.66114 v -30.22705 l -135.33126,6e-5 3e-4,-28.16607 h -7.93222 V 123.8833 H 169.68017 V 122.26611 81.036622 78.987307 77.73633 H 286.59668 V 37.769531 H 169.68017 Z"
     sodipodi:nodetypes="cccccccccccccccccccccccccccccccc" />
  <rect
     style="opacity:0.2;fill:#ff0000;stroke:#ffcccc;stroke-width:0.198425;stroke-linecap:square;stroke-linejoin:round"
     id="rect956"
     width="190.90254"
     height="32.059967"
     x="559.10645"
     y="257.95276" />
  <path
     id="rect958"
     style="opacity:0.2;fill:#ff0000;stroke:#ffcccc;stroke-width:0.198425;stroke-linecap:square;stroke-linejoin:round"
     d="m 346.34473,281.26904 v 36.43213 h 88.40771 v 24.28711 h 30.60352 118.52343 V 312.35742 H 465.35596 v -31.08838 z" />
  <path
     id="rect967"
     style="opacity:0.2;fill:#3eb4ec;fill-opacity:1;stroke:#ffcccc;stroke-width:0.198425;stroke-linecap:square;stroke-linejoin:round"
     d="m 224.63671,204.70312 v 35.03467 H 165.5581 v 41.21777 38.46973 h -31.5996 v 48.08789 h 31.5996 v 85.87061 h 45.33985 53.58398 v 39.15673 h 111.28711 v -39.15673 -3.43506 h 165.55811 v -32.28662 h -165.55811 -37.0957 v 32.28662 3.43506 h -34.34766 v -45.33985 -9.61816 h 63.8877 v -36.40869 h -63.8877 -39.84375 v 36.40869 9.61816 H 210.89795 V 280.95556 h 53.58398 v -41.21777 h 140.14014 v -35.03467 z" />
  <path
     id="rect1005"
     style="opacity:0.2;fill:#3eb4ec;fill-opacity:1;stroke:#ffcccc;stroke-width:0.198425;stroke-linecap:square;stroke-linejoin:round"
     d="m 486.3706,471.24463 v 26.10498 h -55.64355 v 32.28662 h 54.95654 v 21.98291 H 634.75488 V 525.51416 H 522.09229 V 500.78467 H 614.146 v -29.54004 h -92.05371 z" />
  <path
     style="fill:#000000;fill-opacity:0;stroke:#000000;stroke-width:1.60157;stroke-linecap:butt;stroke-linejoin:miter;stroke-miterlimit:10;stroke-dasharray:9.60945, 9.60945;stroke-dashoffset:0.320315;stroke-opacity:0.333333"
     d="M 85.05472,343.93178 V 777.88145"
     id="path1017"
     sodipodi:nodetypes="cc" />
  <path
     style="fill:#000000;fill-opacity:0;stroke:#000000;stroke-width:1.60157;stroke-linecap:butt;stroke-linejoin:miter;stroke-miterlimit:10;stroke-dasharray:9.60945, 9.60945;stroke-dashoffset:0.320315;stroke-opacity:0.333333"
     d="M 283.05472,471.70714 V 766.01828"
     id="path1021"
     sodipodi:nodetypes="cc" />
  <path
     style="fill:#000000;fill-opacity:0;stroke:#000000;stroke-width:1.60157;stroke-linecap:butt;stroke-linejoin:miter;stroke-miterlimit:10;stroke-dasharray:9.60945, 9.60945;stroke-dashoffset:0.320315;stroke-opacity:0.333333"
     d="M 357.28563,512.31383 V 765.08887"
     id="path1023"
     sodipodi:nodetypes="cc" />
  <path
     style="fill:#000000;fill-opacity:0;stroke:#000000;stroke-width:1.60157;stroke-linecap:butt;stroke-linejoin:miter;stroke-miterlimit:10;stroke-dasharray:9.60945, 9.60945;stroke-dashoffset:0.320315;stroke-opacity:0.333333"
     d="M 505.78563,554.91847 V 775.0469"
     id="path1025"
     sodipodi:nodetypes="cc" />
  <path
     style="fill:#000000;fill-opacity:0;stroke:#000000;stroke-width:1.60157;stroke-linecap:butt;stroke-linejoin:miter;stroke-miterlimit:10;stroke-dasharray:9.60945, 9.60945;stroke-dashoffset:0.320315;stroke-opacity:0.333333"
     d="M 247.05472,299.96607 V 765.40312"
     id="path1027"
     sodipodi:nodetypes="cc" />
  <path
     style="fill:#000000;fill-opacity:0;stroke:#000000;stroke-width:1.60157;stroke-linecap:butt;stroke-linejoin:miter;stroke-miterlimit:10;stroke-dasharray:9.60945, 9.60945;stroke-dashoffset:0.320315;stroke-opacity:0.333333"
     d="M 187.05472,426.3675 V 765.36831"
     id="path1029"
     sodipodi:nodetypes="cc" />
  <path
     style="fill:#000000;fill-opacity:0;stroke:#000000;stroke-width:1.60157;stroke-linecap:butt;stroke-linejoin:miter;stroke-miterlimit:10;stroke-dasharray:9.60945, 9.60945;stroke-dashoffset:0.320315;stroke-opacity:0.333333"
     d="M 144.52,141.19 V 765.27512"
     id="path1031"
     sodipodi:nodetypes="cc" />
  <path
     style="fill:#000000;fill-opacity:0;stroke:#000000;stroke-width:1.60157;stroke-linecap:butt;stroke-linejoin:miter;stroke-miterlimit:10;stroke-dasharray:9.60945, 9.60945;stroke-dashoffset:0.320315;stroke-opacity:0.333333"
     d="M 229.59,167.71001 V 766.36459"
     id="path1033"
     sodipodi:nodetypes="cc" />
  <circle
     style="opacity:0.9;fill:#000000;fill-opacity:0.733333;stroke:#2564d6;stroke-width:0.198425;stroke-linecap:square;stroke-linejoin:round;stroke-opacity:1"
     id="path1038"
     cx="85.698792"
     cy="568.56"
     r="4.9804912" />
  <circle
     style="opacity:0.9;fill:#000000;fill-opacity:0.733333;stroke:#2564d6;stroke-width:0.198425;stroke-linecap:square;stroke-linejoin:round;stroke-opacity:1"
     id="circle1044"
     cx="346.69879"
     cy="568.56"
     r="4.9804912" />
  <circle
     style="opacity:0.9;fill:#000000;fill-opacity:0.733333;stroke:#2564d6;stroke-width:0.198425;stroke-linecap:square;stroke-linejoin:round;stroke-opacity:1"
     id="circle1046"
     cx="431.34781"
     cy="568.56"
     r="4.9804912" />
  <g
     id="g3196"
     transform="translate(-66.049011,113.08595)"
     clip-path="url(#clipPath3263)"
     style="fill:#000000;fill-opacity:0.733333">
    <line
       x1="151.11902"
       y1="527.22485"
       x2="743.80902"
       y2="527.22485"
       style="fill:#000000;fill-opacity:0.733333;stroke:#000000;stroke-width:1.5;stroke-linecap:round;stroke-linejoin:round;stroke-miterlimit:10"
       id="line927-9" />
    <line
       x1="743.80902"
       y1="527.22485"
       x2="743.80902"
       y2="534.42487"
       style="fill:#000000;fill-opacity:0.733333;stroke:#000000;stroke-width:1.5;stroke-linecap:round;stroke-linejoin:round;stroke-miterlimit:10"
       id="line937-8" />
  </g>
  <text
     xml:space="preserve"
     transform="matrix(0.75,0,0,0.75,592.6096,-60.830818)"
     id="text2734-9-4"
     style="font-size:16px;white-space:pre;shape-inside:url(#rect2736-3-4);display:inline;fill:#000000"><tspan
       x="139.49219"
       y="931.00158"
       id="tspan26543">Local transmission
</tspan><tspan
       x="139.49219"
       y="951.00158"
       id="tspan26545">(in red Tls)</tspan></text>
  <circle
     style="opacity:0.9;fill:#000000;fill-opacity:0.733333;stroke:#2564d6;stroke-width:0.198425;stroke-linecap:square;stroke-linejoin:round;stroke-opacity:1"
     id="circle1052"
     cx="144.52"
     cy="640.31079"
     r="4.9804912" />
  <circle
     style="opacity:0.9;fill:#000000;fill-opacity:0.733333;stroke:#2564d6;stroke-width:0.198425;stroke-linecap:square;stroke-linejoin:round;stroke-opacity:1"
     id="circle1056"
     cx="229.59"
     cy="640.31079"
     r="4.9804912" />
  <circle
     style="opacity:0.9;fill:#000000;fill-opacity:0.733333;stroke:#2564d6;stroke-width:0.198425;stroke-linecap:square;stroke-linejoin:round;stroke-opacity:1"
     id="circle1064"
     cx="505.78564"
     cy="640.31079"
     r="4.9804912" />
  <path
     style="fill:#000000;fill-opacity:0.733333;stroke:#000000;stroke-width:1.602;stroke-linecap:butt;stroke-linejoin:miter;stroke-miterlimit:10;stroke-dasharray:9.61203, 9.61203;stroke-dashoffset:0.320401;stroke-opacity:0.333333"
     d="M 324.26175,113.79874 V 370.46715"
     id="path1084"
     sodipodi:nodetypes="cc" />
  <path
     style="fill:#000000;fill-opacity:0;stroke:#000000;stroke-width:1.60157;stroke-linecap:butt;stroke-linejoin:miter;stroke-miterlimit:10;stroke-dasharray:9.60945, 9.60945;stroke-dashoffset:0.320315;stroke-opacity:0.333333"
     d="M 324.26175,391.73874 V 766.69585"
     id="path1088"
     sodipodi:nodetypes="cc" />
  <circle
     style="opacity:0.9;fill:#000000;fill-opacity:0.733333;stroke:#2564d6;stroke-width:0.198425;stroke-linecap:square;stroke-linejoin:round;stroke-opacity:1"
     id="circle6003"
     cx="431.34781"
     cy="746.82648"
     r="4.9804912" />
  <circle
     style="opacity:0.9;fill:#000000;fill-opacity:0.733333;stroke:#2564d6;stroke-width:0.198425;stroke-linecap:square;stroke-linejoin:round;stroke-opacity:1"
     id="circle6005"
     cx="346.69879"
     cy="746.82648"
     r="4.9804912" />
  <line
     x1="85.070007"
     y1="674.67236"
     x2="677.76001"
     y2="674.67236"
     style="fill:none;stroke:#000000;stroke-width:1.5;stroke-linecap:round;stroke-linejoin:round;stroke-miterlimit:10"
     id="line6007"
     clip-path="url(#clipPath3620)"
     transform="translate(0,34.654085)" />
  <line
     x1="677.76001"
     y1="674.67236"
     x2="677.76001"
     y2="681.87238"
     style="fill:none;stroke:#000000;stroke-width:1.5;stroke-linecap:round;stroke-linejoin:round;stroke-miterlimit:10"
     id="line6017"
     clip-path="url(#clipPath3580)"
     transform="translate(0,34.654085)" />
  <text
     xml:space="preserve"
     transform="matrix(0.75,0,0,0.75,592.6096,14.87991)"
     id="text6021"
     style="font-size:16px;white-space:pre;shape-inside:url(#rect6029);display:inline;fill:#000000"><tspan
       x="139.49219"
       y="931.00158"
       id="tspan26547">Exports (from red)</tspan></text>
  <circle
     style="opacity:0.9;fill:#000000;fill-opacity:0.733333;stroke:#2564d6;stroke-width:0.198425;stroke-linecap:square;stroke-linejoin:round;stroke-opacity:1"
     id="circle6133"
     cx="559.78564"
     cy="709.32648"
     r="4.9804912" />
  <circle
     style="opacity:0.9;fill:#000000;fill-opacity:0.733333;stroke:#2564d6;stroke-width:0.198425;stroke-linecap:square;stroke-linejoin:round;stroke-opacity:1"
     id="circle6135"
     cx="133.69879"
     cy="709.32648"
     r="4.9804912" />
  <circle
     style="opacity:0.9;fill:#000000;fill-opacity:0.733333;stroke:#2564d6;stroke-width:0.198425;stroke-linecap:square;stroke-linejoin:round;stroke-opacity:1"
     id="circle6137"
     cx="324.26175"
     cy="709.32648"
     r="4.9804912" />
  <g
     id="g6394"
     transform="translate(-66.049011,144.58595)"
     clip-path="url(#clipPath3263)"
     style="fill:#000000;fill-opacity:0.733333">
    <line
       x1="151.11902"
       y1="527.22485"
       x2="743.80902"
       y2="527.22485"
       style="fill:#000000;fill-opacity:0.733333;stroke:#000000;stroke-width:1.5;stroke-linecap:round;stroke-linejoin:round;stroke-miterlimit:10"
       id="line6382" />
    <line
       x1="743.80902"
       y1="527.22485"
       x2="743.80902"
       y2="534.42487"
       style="fill:#000000;fill-opacity:0.733333;stroke:#000000;stroke-width:1.5;stroke-linecap:round;stroke-linejoin:round;stroke-miterlimit:10"
       id="line6392" />
  </g>
  <circle
     style="opacity:0.9;fill:#000000;fill-opacity:0.733333;stroke:#2564d6;stroke-width:0.198425;stroke-linecap:square;stroke-linejoin:round;stroke-opacity:1"
     id="circle6402"
     cx="187.05472"
     cy="671.81079"
     r="4.9804912" />
  <circle
     style="opacity:0.9;fill:#000000;fill-opacity:0.733333;stroke:#2564d6;stroke-width:0.198425;stroke-linecap:square;stroke-linejoin:round;stroke-opacity:1"
     id="circle6406"
     cx="247.05472"
     cy="671.81079"
     r="4.9804912" />
  <circle
     style="opacity:0.9;fill:#000000;fill-opacity:0.733333;stroke:#2564d6;stroke-width:0.198425;stroke-linecap:square;stroke-linejoin:round;stroke-opacity:1"
     id="circle6408"
     cx="283.05472"
     cy="671.81079"
     r="4.9804912" />
  <circle
     style="opacity:0.9;fill:#000000;fill-opacity:0.733333;stroke:#2564d6;stroke-width:0.198425;stroke-linecap:square;stroke-linejoin:round;stroke-opacity:1"
     id="circle6410"
     cx="357.28564"
     cy="671.81079"
     r="4.9804912" />
  <circle
     style="opacity:0.9;fill:#000000;fill-opacity:0.733333;stroke:#2564d6;stroke-width:0.198425;stroke-linecap:square;stroke-linejoin:round;stroke-opacity:1"
     id="circle10606"
     cx="187.05472"
     cy="776.8316"
     r="4.9804912" />
  <circle
     style="opacity:0.9;fill:#000000;fill-opacity:0.733333;stroke:#2564d6;stroke-width:0.198425;stroke-linecap:square;stroke-linejoin:round;stroke-opacity:1"
     id="circle10608"
     cx="247.05472"
     cy="776.8316"
     r="4.9804912" />
  <circle
     style="opacity:0.9;fill:#000000;fill-opacity:0.733333;stroke:#2564d6;stroke-width:0.198425;stroke-linecap:square;stroke-linejoin:round;stroke-opacity:1"
     id="circle10610"
     cx="283.05472"
     cy="776.8316"
     r="4.9804912" />
  <text
     xml:space="preserve"
     transform="matrix(0.75,0,0,0.75,592.6096,-29.330818)"
     id="text6432"
     style="font-size:16px;white-space:pre;shape-inside:url(#rect6452);display:inline;fill:#000000"><tspan
       x="139.49219"
       y="931.00158"
       id="tspan26549">Local transmission
</tspan><tspan
       x="139.49219"
       y="951.00158"
       id="tspan26551">(in blue Tls) 
</tspan></text>
  <circle
     style="opacity:0.9;fill:#000000;fill-opacity:0.733333;stroke:#2564d6;stroke-width:0.198425;stroke-linecap:square;stroke-linejoin:round;stroke-opacity:1"
     id="circle6444"
     cx="357.28564"
     cy="776.8316"
     r="4.9804912" />
  <circle
     style="opacity:0.9;fill:#000000;fill-opacity:0.733333;stroke:#2564d6;stroke-width:0.198425;stroke-linecap:square;stroke-linejoin:round;stroke-opacity:1"
     id="circle10602"
     cx="85.698792"
     cy="776.8316"
     r="4.9804912" />
  <circle
     style="opacity:0.9;fill:#000000;fill-opacity:0.733333;stroke:#2564d6;stroke-width:0.198425;stroke-linecap:square;stroke-linejoin:round;stroke-opacity:1"
     id="circle10604"
     cx="133.69879"
     cy="776.8316"
     r="4.9804912" />
  <circle
     style="opacity:0.9;fill:#000000;fill-opacity:0.733333;stroke:#2564d6;stroke-width:0.198425;stroke-linecap:square;stroke-linejoin:round;stroke-opacity:1"
     id="circle10612"
     cx="324.26175"
     cy="776.8316"
     r="4.9804912" />
  <circle
     style="opacity:0.9;fill:#000000;fill-opacity:0.733333;stroke:#2564d6;stroke-width:0.198425;stroke-linecap:square;stroke-linejoin:round;stroke-opacity:1"
     id="circle10614"
     cx="346.69879"
     cy="776.8316"
     r="4.9804912" />
  <circle
     style="opacity:0.9;fill:#000000;fill-opacity:0.733333;stroke:#2564d6;stroke-width:0.198425;stroke-linecap:square;stroke-linejoin:round;stroke-opacity:1"
     id="circle10616"
     cx="431.34781"
     cy="776.8316"
     r="4.9804912" />
  <circle
     style="opacity:0.9;fill:#000000;fill-opacity:0.733333;stroke:#2564d6;stroke-width:0.198425;stroke-linecap:square;stroke-linejoin:round;stroke-opacity:1"
     id="circle10618"
     cx="505.78564"
     cy="776.8316"
     r="4.9804912" />
  <circle
     style="opacity:0.9;fill:#000000;fill-opacity:0.733333;stroke:#2564d6;stroke-width:0.198425;stroke-linecap:square;stroke-linejoin:round;stroke-opacity:1"
     id="circle10620"
     cx="559.78564"
     cy="776.8316"
     r="4.9804912" />
  <circle
     style="opacity:0.9;fill:#000000;fill-opacity:0.733333;stroke:#2564d6;stroke-width:0.198425;stroke-linecap:square;stroke-linejoin:round;stroke-opacity:1"
     id="circle11165"
     cx="144.52"
     cy="776.8316"
     r="4.9804912" />
  <circle
     style="opacity:0.9;fill:#000000;fill-opacity:0.733333;stroke:#2564d6;stroke-width:0.198425;stroke-linecap:square;stroke-linejoin:round;stroke-opacity:1"
     id="circle11167"
     cx="229.59"
     cy="776.8316"
     r="4.9804912" />
  <line
     x1="85.07"
     y1="574.56"
     x2="677.76001"
     y2="574.56"
     style="stroke-width:1.5"
     id="line12302"
     clip-path="url(#clipPath3315)"
     transform="translate(0,27)" />
  <line
     x1="85.07"
     y1="574.56"
     x2="85.07"
     y2="581.76001"
     style="fill:#030101;fill-opacity:0.972549;stroke-width:1.5"
     id="line12304"
     clip-path="url(#clipPath3309)"
     transform="translate(0,27)" />
  <line
     x1="677.76001"
     y1="574.56"
     x2="677.76001"
     y2="581.76001"
     style="stroke-width:1.5"
     id="line12308"
     clip-path="url(#clipPath3285)"
     transform="translate(0,27)" />
  <text
     xml:space="preserve"
     transform="matrix(0.75,0,0,0.75,592.94798,-92.88654)"
     id="text12312"
     style="font-size:16px;white-space:pre;shape-inside:url(#rect12326);display:inline;fill:#000000"><tspan
       x="139.49219"
       y="931.00158"
       id="tspan26553">Imports (to blue)</tspan></text>
  <circle
     style="opacity:0.9;fill:#000000;fill-opacity:0.733333;stroke:#2564d6;stroke-width:0.198425;stroke-linecap:square;stroke-linejoin:round;stroke-opacity:1"
     id="circle12316"
     cx="133.69879"
     cy="601.56"
     r="4.9804912" />
  <circle
     style="opacity:0.9;fill:#000000;fill-opacity:0.733333;stroke:#2564d6;stroke-width:0.198425;stroke-linecap:square;stroke-linejoin:round;stroke-opacity:1"
     id="circle12322"
     cx="559.78564"
     cy="601.56"
     r="4.9804912" />
  <circle
     style="opacity:0.9;fill:#000000;fill-opacity:0.733333;stroke:#2564d6;stroke-width:0.198425;stroke-linecap:square;stroke-linejoin:round;stroke-opacity:1"
     id="circle12324"
     cx="324.26175"
     cy="601.56"
     r="4.9804912" />
  <text
     xml:space="preserve"
     transform="scale(0.75)"
     id="text23813"
     style="font-size:14.6667px;white-space:pre;shape-inside:url(#rect23815);display:inline;fill:#000000;fill-opacity:0.733333;stroke:#8498bb;stroke-width:2.136;stroke-dasharray:12.816, 12.816;stroke-dashoffset:0.427201;stroke-opacity:1" />
</svg>
